<svg xmlns="http://www.w3.org/2000/svg" width="19" height="19" viewBox="0 0 19 19">
  <defs>
    <style>
      .cls-1 {
        fill: #f5c646;
      }
    </style>
  </defs>
  <title>vikl</title>
  <g id="Layer_2" data-name="Layer 2">
    <g id="Layer_1-2" data-name="Layer 1">
      <path class="cls-1" d="M4.3,4a.3.3,0,0,0-.3.3V14.7a.3.3,0,0,0,.3.3H9V4ZM14.7,4H10V15h4.7a.3.3,0,0,0,.3-.3V4.3A.3.3,0,0,0,14.7,4Zm0,0H10V15h4.7a.3.3,0,0,0,.3-.3V4.3A.3.3,0,0,0,14.7,4ZM4,4.3V14.7a.3.3,0,0,0,.3.3H9V4H4.3A.3.3,0,0,0,4,4.3ZM16.47,0H2.53A2.527,2.527,0,0,0,0,2.53V16.47A2.527,2.527,0,0,0,2.53,19H16.47A2.527,2.527,0,0,0,19,16.47V2.53A2.527,2.527,0,0,0,16.47,0ZM16,14.7A1.3,1.3,0,0,1,14.7,16H4.3A1.3,1.3,0,0,1,3,14.7V4.3A1.3,1.3,0,0,1,4.3,3H14.7A1.3,1.3,0,0,1,16,4.3ZM14.7,4H10V15h4.7a.3.3,0,0,0,.3-.3V4.3A.3.3,0,0,0,14.7,4ZM4,4.3V14.7a.3.3,0,0,0,.3.3H9V4H4.3A.3.3,0,0,0,4,4.3ZM4.3,4a.3.3,0,0,0-.3.3V14.7a.3.3,0,0,0,.3.3H9V4ZM14.7,4H10V15h4.7a.3.3,0,0,0,.3-.3V4.3A.3.3,0,0,0,14.7,4Zm0,0H10V15h4.7a.3.3,0,0,0,.3-.3V4.3A.3.3,0,0,0,14.7,4Z"/>
    </g>
  </g>
</svg>
