<svg xmlns="http://www.w3.org/2000/svg" width="19" height="19" viewBox="0 0 19 19">
  <defs>
    <style>
      .cls-1 {
        fill: #f5c646;
      }
    </style>
  </defs>
  <title>dimmer</title>
  <g id="Layer_2" data-name="Layer 2">
    <g id="Layer_1-2" data-name="Layer 1">
      <path class="cls-1" d="M12.58,7.84l-.96.95-1,1L9.21,8.38l1-1,.96-.96A3.5,3.5,0,1,0,13,9.5,3.438,3.438,0,0,0,12.58,7.84Zm0,0-.96.95-1,1L9.21,8.38l1-1,.96-.96A3.5,3.5,0,1,0,13,9.5,3.438,3.438,0,0,0,12.58,7.84Zm0,0-.96.95-1,1L9.21,8.38l1-1,.96-.96A3.5,3.5,0,1,0,13,9.5,3.438,3.438,0,0,0,12.58,7.84Zm0,0-.96.95-1,1L9.21,8.38l1-1,.96-.96A3.5,3.5,0,1,0,13,9.5,3.438,3.438,0,0,0,12.58,7.84Zm0,0-.96.95-1,1L9.21,8.38l1-1,.96-.96A3.5,3.5,0,1,0,13,9.5,3.438,3.438,0,0,0,12.58,7.84Zm0,0-.96.95-1,1L9.21,8.38l1-1,.96-.96A3.5,3.5,0,1,0,13,9.5,3.438,3.438,0,0,0,12.58,7.84Zm0,0-.96.95-1,1L9.21,8.38l1-1,.96-.96A3.5,3.5,0,1,0,13,9.5,3.438,3.438,0,0,0,12.58,7.84Zm0,0-.96.95-1,1L9.21,8.38l1-1,.96-.96A3.5,3.5,0,1,0,13,9.5,3.438,3.438,0,0,0,12.58,7.84ZM16.47,0H2.53A2.527,2.527,0,0,0,0,2.53V16.47A2.527,2.527,0,0,0,2.53,19H16.47A2.527,2.527,0,0,0,19,16.47V2.53A2.527,2.527,0,0,0,16.47,0ZM9.5,1a1,1,0,1,1-1,1A1,1,0,0,1,9.5,1ZM3.49,3.49a1,1,0,0,1,1.41,0,1,1,0,0,1,0,1.41.978.978,0,0,1-1.41,0A1,1,0,0,1,3.49,3.49ZM2,10.5a1,1,0,1,1,1-1A1,1,0,0,1,2,10.5Zm2.9,5.01a1,1,0,0,1-1.41,0,1,1,0,0,1,0-1.41.978.978,0,0,1,1.41,0A1,1,0,0,1,4.9,15.51ZM9.5,18a1,1,0,1,1,1-1A1,1,0,0,1,9.5,18Zm0-3A5.5,5.5,0,1,1,15,9.5,5.5,5.5,0,0,1,9.5,15Zm6.01.51a1,1,0,0,1-1.41,0,1,1,0,0,1,0-1.41.978.978,0,0,1,1.41,0A1,1,0,0,1,15.51,15.51Zm0-10.61a.978.978,0,0,1-1.41,0,1,1,0,0,1,0-1.41,1,1,0,0,1,1.41,0A1,1,0,0,1,15.51,4.9ZM17,10.5a1,1,0,1,1,1-1A1,1,0,0,1,17,10.5ZM11.62,8.79l-1,1L9.21,8.38l1-1,.96-.96A3.5,3.5,0,1,0,13,9.5a3.438,3.438,0,0,0-.42-1.66Zm.96-.95-.96.95-1,1L9.21,8.38l1-1,.96-.96A3.5,3.5,0,1,0,13,9.5,3.438,3.438,0,0,0,12.58,7.84Zm0,0-.96.95-1,1L9.21,8.38l1-1,.96-.96A3.5,3.5,0,1,0,13,9.5,3.438,3.438,0,0,0,12.58,7.84Zm0,0-.96.95-1,1L9.21,8.38l1-1,.96-.96A3.5,3.5,0,1,0,13,9.5,3.438,3.438,0,0,0,12.58,7.84Zm0,0-.96.95-1,1L9.21,8.38l1-1,.96-.96A3.5,3.5,0,1,0,13,9.5,3.438,3.438,0,0,0,12.58,7.84Zm0,0-.96.95-1,1L9.21,8.38l1-1,.96-.96A3.5,3.5,0,1,0,13,9.5,3.438,3.438,0,0,0,12.58,7.84Zm0,0-.96.95-1,1L9.21,8.38l1-1,.96-.96A3.5,3.5,0,1,0,13,9.5,3.438,3.438,0,0,0,12.58,7.84Zm0,0-.96.95-1,1L9.21,8.38l1-1,.96-.96A3.5,3.5,0,1,0,13,9.5,3.438,3.438,0,0,0,12.58,7.84Zm0,0-.96.95-1,1L9.21,8.38l1-1,.96-.96A3.5,3.5,0,1,0,13,9.5,3.438,3.438,0,0,0,12.58,7.84Z"/>
    </g>
  </g>
</svg>
