<svg xmlns="http://www.w3.org/2000/svg" width="19" height="19" viewBox="0 0 19 19">
  <defs>
    <style>
      .cls-1 {
        fill: #f5c646;
      }
    </style>
  </defs>
  <title>rozet</title>
  <g id="Layer_2" data-name="Layer 2">
    <g id="Layer_1-2" data-name="Layer 1">
      <g>
        <path class="cls-1" d="M9.5,4A5.5,5.5,0,1,0,15,9.5,5.51,5.51,0,0,0,9.5,4Zm-3,7A1.5,1.5,0,1,1,8,9.5,1.5,1.5,0,0,1,6.5,11Zm6,0A1.5,1.5,0,1,1,14,9.5,1.5,1.5,0,0,1,12.5,11Z"/>
        <path class="cls-1" d="M16.47,0H2.53A2.527,2.527,0,0,0,0,2.53V16.47A2.527,2.527,0,0,0,2.53,19H16.47A2.527,2.527,0,0,0,19,16.47V2.53A2.527,2.527,0,0,0,16.47,0ZM9.5,17A7.5,7.5,0,1,1,17,9.5,7.5,7.5,0,0,1,9.5,17Z"/>
      </g>
    </g>
  </g>
</svg>
