<svg xmlns="http://www.w3.org/2000/svg" width="18.019" height="19" viewBox="0 0 18.019 19">
  <defs>
    <style>
      .cls-1 {
        fill: #f5c646;
      }
    </style>
  </defs>
  <title>plafon</title>
  <g id="Layer_2" data-name="Layer 2">
    <g id="Layer_1-2" data-name="Layer 1">
      <g>
        <path class="cls-1" d="M15.5,2.03,2.786,7.172a1,1,0,0,1-1.362-1.1L2.319,1s2-1,6.5-1,6.5,1,6.5,1Z"/>
        <path class="cls-1" d="M15.9,8.687l-14.5,6.431A1,1,0,0,1,.016,14.029L.6,10.715a1,1,0,0,1,.61-.753L14.714,4.5a1,1,0,0,1,1.358.753L16.484,7.6A1,1,0,0,1,15.9,8.687Z"/>
        <path class="cls-1" d="M16.359,18.44a44.277,44.277,0,0,1-7.54.56,44.277,44.277,0,0,1-7.54-.56,1.977,1.977,0,0,1-1.1-.59L15.81,10.918a1,1,0,0,1,1.391.741l.788,4.461A2,2,0,0,1,16.359,18.44Z"/>
      </g>
    </g>
  </g>
</svg>
