<svg xmlns="http://www.w3.org/2000/svg" width="19" height="19" viewBox="0 0 19 19">
  <defs>
    <style>
      .cls-1 {
        fill: #f5c646;
      }
    </style>
  </defs>
  <title>udlin</title>
  <g id="Layer_2" data-name="Layer 2">
    <g id="Layer_1-2" data-name="Layer 1">
      <path class="cls-1" d="M18,7H15V1a1,1,0,0,0-2,0V7H6V1A1,1,0,0,0,4,1V7H1A1,1,0,0,0,0,8v2a1,1,0,0,0,1,1,1,1,0,0,1,1,1v2.683A2.317,2.317,0,0,0,4.317,17H7a1,1,0,0,1,1,1v1h3V18a1,1,0,0,1,1-1h2.684A2.317,2.317,0,0,0,17,14.683V12a1,1,0,0,1,1-1,1,1,0,0,0,1-1V8A1,1,0,0,0,18,7Z"/>
    </g>
  </g>
</svg>
