<svg xmlns="http://www.w3.org/2000/svg" width="22.584" height="20" viewBox="0 0 22.584 20">
  <defs>
    <style>
      .cls-1 {
        fill: #2a3138;
      }
    </style>
  </defs>
  <title>1click</title>
  <g id="Layer_2" data-name="Layer 2">
    <g id="Layer_1-2" data-name="Layer 1">
      <g>
        <g>
          <path class="cls-1" d="M18.68,2.67H16a.21.21,0,0,1,.08.06,1.744,1.744,0,0,1,0,2.45L14.85,6.41a1.2,1.2,0,0,1-.18.15l4.02,1.6,1.24-3.74A1.322,1.322,0,0,0,18.68,2.67ZM11.73,14H6.51l-.26-1.33H7.51a1.736,1.736,0,0,1-.88-2.93L7,9.37H6.62a1.73,1.73,0,0,1,0-3.46h.73l-.47-.47a1.726,1.726,0,0,1,0-2.45,1.6,1.6,0,0,1,.45-.32H4.36l-.3-1.59A1.32,1.32,0,0,0,2.76,0H.67A.67.67,0,0,0,0,.67a.668.668,0,0,0,.67.66H2.76L5.21,14.25A1.308,1.308,0,0,0,6.5,15.33h5.76Zm-1.28-3.22a1.191,1.191,0,0,1-.15.18L9.07,12.19a1.7,1.7,0,0,1-.88.48H11.2Z"/>
          <path class="cls-1" d="M7.28,16a2,2,0,1,0,1.99,2A2,2,0,0,0,7.28,16Zm0,2.67A.67.67,0,1,1,7.94,18,.668.668,0,0,1,7.28,18.67Z"/>
          <path class="cls-1" d="M17.05,17.22,17,17.17l-.58,1.01a1.748,1.748,0,0,1-1.5.87l-.13-.01a1.725,1.725,0,0,1-1.48-1.08l-.06-.15a1.147,1.147,0,0,0-.01.19,1.985,1.985,0,1,0,3.81-.78Z"/>
        </g>
        <path class="cls-1" d="M22.423,16.148l-3.287-3.287,2.345-1.354a.552.552,0,0,0-.072-.991L10.953,6.345a.552.552,0,0,0-.718.718l4.17,10.457a.552.552,0,0,0,.991.072l1.354-2.345,3.286,3.287a.552.552,0,0,0,.781,0l1.6-1.6A.552.552,0,0,0,22.423,16.148Z"/>
        <path class="cls-1" d="M8.495,3.823a.552.552,0,1,0-.781.781L8.941,5.831a.552.552,0,1,0,.781-.781Z"/>
        <path class="cls-1" d="M8.911,7.641a.552.552,0,0,0-.552-.552H6.623a.552.552,0,1,0,0,1.1H8.358A.552.552,0,0,0,8.911,7.641Z"/>
        <path d="M8.19,12.67a1.94,1.94,0,0,1-.68,0Z"/>
        <path class="cls-1" d="M8.687,9.346,7.459,10.573a.552.552,0,0,0,.781.781l1.227-1.227a.552.552,0,0,0-.781-.781Z"/>
        <path class="cls-1" d="M11.532,5.02a.552.552,0,0,0,.552-.552V2.732a.552.552,0,0,0-1.1,0V4.468A.552.552,0,0,0,11.532,5.02Z"/>
        <path class="cls-1" d="M13.626,5.739a.551.551,0,0,0,.391-.162L15.244,4.35a.552.552,0,0,0-.781-.781L13.236,4.8a.552.552,0,0,0,.391.943Z"/>
      </g>
    </g>
  </g>
</svg>
