<svg xmlns="http://www.w3.org/2000/svg" width="20" height="20" viewBox="0 0 20 20">
  <defs>
    <style>
      .cls-1 {
        fill: #2a3138;
      }
    </style>
  </defs>
  <title>cart1</title>
  <g id="Layer_2" data-name="Layer 2">
    <g id="Layer_1-2" data-name="Layer 1">
      <g>
        <path class="cls-1" d="M18.679,2.667H4.36l-.3-1.583A1.327,1.327,0,0,0,2.761,0H.662a.667.667,0,0,0,0,1.333h2.1L5.2,14.252a1.325,1.325,0,0,0,1.3,1.082h9.38a.667.667,0,0,0,0-1.333L6.5,14,6.25,12.667h10a1.33,1.33,0,0,0,1.257-.913L19.929,4.42A1.326,1.326,0,0,0,18.679,2.667ZM9.594,9.333a.662.662,0,1,1-1.323,0V6A.662.662,0,1,1,9.594,6Zm2.647,0a.662.662,0,1,1-1.323,0V6a.662.662,0,1,1,1.323,0Zm2.647,0a.662.662,0,1,1-1.323,0V6a.662.662,0,1,1,1.323,0Z"/>
        <path class="cls-1" d="M7.278,16a2,2,0,1,0,1.985,2A2,2,0,0,0,7.278,16Zm0,2.667A.667.667,0,1,1,7.94,18,.666.666,0,0,1,7.278,18.667Z"/>
        <path class="cls-1" d="M15.218,16A2,2,0,1,0,17.2,18,2,2,0,0,0,15.218,16Zm0,2.667A.667.667,0,1,1,15.88,18,.666.666,0,0,1,15.218,18.667Z"/>
      </g>
    </g>
  </g>
</svg>
