<svg xmlns="http://www.w3.org/2000/svg" width="28.798" height="30" viewBox="0 0 28.798 30">
  <defs>
    <style>
      .cls-1 {
        fill: #2a3138;
      }
    </style>
  </defs>
  <title>cart</title>
  <g id="Layer_2" data-name="Layer 2">
    <g id="Layer_1-2" data-name="Layer 1">
      <g>
        <path class="cls-1" d="M26.8,4H6.59L6.137,1.625A2,2,0,0,0,4.173,0H1A1,1,0,0,0,1,2H4.172L7.863,21.377A2,2,0,0,0,9.824,23H23a1,1,0,0,0,0-2L9.828,21l-.382-2H23.126a2,2,0,0,0,1.9-1.37l3.668-11A2,2,0,0,0,26.8,4ZM23.126,17H9.083L6.987,6H26.8Z"/>
        <path class="cls-1" d="M11,24a3,3,0,1,0,3,3A3,3,0,0,0,11,24Zm0,4a1,1,0,1,1,1-1A1,1,0,0,1,11,28Z"/>
        <path class="cls-1" d="M22,24a3,3,0,1,0,3,3A3,3,0,0,0,22,24Zm0,4a1,1,0,1,1,1-1A1,1,0,0,1,22,28Z"/>
        <path class="cls-1" d="M12.5,15a1,1,0,0,0,1-1V9a1,1,0,0,0-2,0v5A1,1,0,0,0,12.5,15Z"/>
        <path class="cls-1" d="M16.5,15a1,1,0,0,0,1-1V9a1,1,0,0,0-2,0v5A1,1,0,0,0,16.5,15Z"/>
        <path class="cls-1" d="M20.5,15a1,1,0,0,0,1-1V9a1,1,0,0,0-2,0v5A1,1,0,0,0,20.5,15Z"/>
      </g>
    </g>
  </g>
</svg>
