<svg xmlns="http://www.w3.org/2000/svg" width="22" height="22" viewBox="0 0 22 22">
  <defs>
    <style>
      .cls-1 {
        fill: #f5c646;
      }
    </style>
  </defs>
  <title>charactristics</title>
  <g id="Layer_2" data-name="Layer 2">
    <g id="Layer_1-2" data-name="Layer 1">
      <path class="cls-1" d="M11,15a4,4,0,1,1,4-4A4,4,0,0,1,11,15Zm0-6a2,2,0,1,0,2,2A2,2,0,0,0,11,9Zm3,13H8V19.49a8.907,8.907,0,0,1-.885-.367L5.342,20.907,1.093,16.658l1.784-1.773A8.907,8.907,0,0,1,2.51,14H0V8H2.51a8.907,8.907,0,0,1,.367-.885L1.093,5.342,5.342,1.093,7.115,2.877A8.907,8.907,0,0,1,8,2.51V0h6V2.51a8.907,8.907,0,0,1,.885.367l1.773-1.784,4.249,4.249L19.123,7.115A8.907,8.907,0,0,1,19.49,8H22v6H19.49a8.907,8.907,0,0,1-.367.885l1.784,1.773-4.249,4.249-1.773-1.784A8.907,8.907,0,0,1,14,19.49Zm-4-2h2V17.974l.751-.193a6.886,6.886,0,0,0,1.808-.751l.67-.4,1.433,1.441,1.412-1.412-1.441-1.433.4-.67a6.886,6.886,0,0,0,.751-1.808L17.974,12H20V10H17.974l-.193-.751a6.886,6.886,0,0,0-.751-1.808l-.4-.67,1.441-1.433L16.662,3.926,15.229,5.368l-.67-.4a6.886,6.886,0,0,0-1.808-.751L12,4.026V2H10V4.026l-.751.193a6.886,6.886,0,0,0-1.808.751l-.67.4L5.338,3.926,3.926,5.338,5.368,6.771l-.4.67a6.886,6.886,0,0,0-.751,1.808L4.026,10H2v2H4.026l.193.751a6.886,6.886,0,0,0,.751,1.808l.4.67L3.926,16.662l1.412,1.412,1.433-1.441.67.4a6.886,6.886,0,0,0,1.808.751l.751.193Z"/>
    </g>
  </g>
</svg>
