<svg xmlns="http://www.w3.org/2000/svg" width="32" height="30" viewBox="0 0 32 30">
  <defs>
    <style>
      .cls-1 {
        fill: #f5c646;
      }
    </style>
  </defs>
  <title>compare</title>
  <g id="Layer_2" data-name="Layer 2">
    <g id="Layer_1-2" data-name="Layer 1">
      <path class="cls-1" d="M31,12h-.382l-3.95-7.9A1.995,1.995,0,1,0,23.278,2H18.816a2.982,2.982,0,0,0-5.631,0H8.722a1.995,1.995,0,1,0-3.39,2.1L1.382,12H1a1,1,0,0,0-1,1,7,7,0,0,0,14,0,1,1,0,0,0-1-1h-.382L8.668,4.1c.021-.031.035-.067.054-.1h4.462A3,3,0,0,0,15,5.816V22H12a1,1,0,0,0-1,1v2H9a1,1,0,0,0-1,1v3a1,1,0,0,0,1,1H23a1,1,0,0,0,1-1V26a1,1,0,0,0-1-1H21V23a1,1,0,0,0-1-1H17V5.816A3,3,0,0,0,18.816,4h4.462c.019.033.033.068.054.1L19.382,12H19a1,1,0,0,0-1,1,7,7,0,0,0,14,0A1,1,0,0,0,31,12ZM22,28H10V27H22Zm-3-3H13V24h6ZM7,18a5.009,5.009,0,0,1-4.9-4h9.8A5.009,5.009,0,0,1,7,18ZM3.618,12,7,5.236,10.382,12ZM25,5.236,28.382,12H21.618ZM25,18a5.009,5.009,0,0,1-4.9-4h9.8A5.009,5.009,0,0,1,25,18Z"/>
    </g>
  </g>
</svg>
