<svg xmlns="http://www.w3.org/2000/svg" width="14" height="14" viewBox="0 0 14 14">
  <defs>
    <style>
      .cls-1 {
        fill: #2a3138;
      }
    </style>
  </defs>
  <title>compare1</title>
  <g id="Layer_2" data-name="Layer 2">
    <g id="Layer_1-2" data-name="Layer 1">
      <path class="cls-1" d="M14,6.276a.486.486,0,0,0-.045-.216L11.98,1.983a1,1,0,0,0,.153-.534A.953.953,0,0,0,11.2.483a.926.926,0,0,0-.807.483H8.316a1.38,1.38,0,0,0-2.632,0H3.607A.926.926,0,0,0,2.8.483a.953.953,0,0,0-.933.966,1,1,0,0,0,.153.534L.049,6.06A.486.486,0,0,0,0,6.276H0a2.852,2.852,0,0,0,2.8,2.9,2.852,2.852,0,0,0,2.8-2.9h0a.486.486,0,0,0-.045-.216L3.58,1.983c.009-.019.018-.033.027-.052H5.684a1.418,1.418,0,0,0,.849.879V11.1h-1.4v1.448h-1.4V14h6.533V12.552h-1.4V11.1h-1.4V2.81a1.418,1.418,0,0,0,.849-.879h2.077c.009.019.018.033.027.052L8.449,6.06a.486.486,0,0,0-.045.216h0a2.8,2.8,0,1,0,5.6,0ZM7.467,1.448A.467.467,0,1,1,7,.966.476.476,0,0,1,7.467,1.448ZM.988,6.276,2.8,2.528,4.612,6.276Zm8.4,0L11.2,2.528l1.812,3.748Z"/>
    </g>
  </g>
</svg>
