<svg xmlns="http://www.w3.org/2000/svg" width="20" height="20" viewBox="0 0 20 20">
  <defs>
    <style>
      .cls-1 {
        fill: #2a3138;
      }
    </style>
  </defs>
  <title>description</title>
  <g id="Layer_2" data-name="Layer 2">
    <g id="Layer_1-2" data-name="Layer 1">
      <g>
        <path class="cls-1" d="M10,1a9,9,0,1,1-9,9,9.01,9.01,0,0,1,9-9m0-1A10,10,0,1,0,20,10,10,10,0,0,0,10,0Z"/>
        <path class="cls-1" d="M12.077,13.921l-.14.571q-.629.248-1,.378a2.647,2.647,0,0,1-.87.13,1.737,1.737,0,0,1-1.184-.371,1.2,1.2,0,0,1-.422-.943,3.336,3.336,0,0,1,.031-.454q.032-.232.1-.524l.524-1.854q.07-.266.118-.5a2.194,2.194,0,0,0,.048-.434.672.672,0,0,0-.147-.5.828.828,0,0,0-.56-.14,1.468,1.468,0,0,0-.416.064c-.143.042-.264.083-.367.121l.14-.572q.515-.21.985-.359a2.946,2.946,0,0,1,.891-.149,1.694,1.694,0,0,1,1.166.365,1.212,1.212,0,0,1,.41.949c0,.081-.009.223-.028.425a2.846,2.846,0,0,1-.1.559l-.522,1.847a4.905,4.905,0,0,0-.115.509,2.618,2.618,0,0,0-.051.432.622.622,0,0,0,.164.5.928.928,0,0,0,.571.133,1.648,1.648,0,0,0,.431-.067A2.413,2.413,0,0,0,12.077,13.921Zm.132-7.753a1.081,1.081,0,0,1-.365.822,1.242,1.242,0,0,1-.879.34,1.256,1.256,0,0,1-.883-.34,1.105,1.105,0,0,1,0-1.648,1.3,1.3,0,0,1,1.762,0A1.091,1.091,0,0,1,12.209,6.168Z"/>
      </g>
    </g>
  </g>
</svg>
