<svg xmlns="http://www.w3.org/2000/svg" width="21.255" height="24" viewBox="0 0 21.255 24">
  <defs>
    <style>
      .cls-1 {
        fill: #299bef;
      }
    </style>
  </defs>
  <title>doc</title>
  <g id="Layer_2" data-name="Layer 2">
    <g id="Layer_1-2" data-name="Layer 1">
      <g>
        <path class="cls-1" d="M19.909,8.585h-.576V5.8a.411.411,0,0,0-.005-.052.462.462,0,0,0-.112-.3L14.589.161l0,0a.464.464,0,0,0-.094-.079L14.461.061a.49.49,0,0,0-.093-.039L14.343.013A.468.468,0,0,0,14.235,0H2.863a.942.942,0,0,0-.941.941V8.585H1.345A1.345,1.345,0,0,0,0,9.93v7A1.346,1.346,0,0,0,1.345,18.27h.576v4.789A.942.942,0,0,0,2.863,24H18.392a.942.942,0,0,0,.941-.941V18.27h.576a1.345,1.345,0,0,0,1.345-1.345v-7A1.345,1.345,0,0,0,19.909,8.585ZM2.863.941h10.9V5.756a.471.471,0,0,0,.471.471h4.157V8.585H2.863Zm11.292,12.1a3.111,3.111,0,0,1-3.2,3.436,3.042,3.042,0,0,1-3.069-3.32,3.158,3.158,0,0,1,3.175-3.417A3.041,3.041,0,0,1,14.155,13.045Zm-12.711,3.3V9.938A13.14,13.14,0,0,1,3.438,9.8a4.2,4.2,0,0,1,2.672.7,2.887,2.887,0,0,1,1.1,2.459A3.309,3.309,0,0,1,6.13,15.6a4.684,4.684,0,0,1-3.011.842A12.781,12.781,0,0,1,1.444,16.346ZM18.392,22.8H2.863V18.27H18.392Zm.071-7.551a3.7,3.7,0,0,0,1.229-.213l.223,1.152a4.2,4.2,0,0,1-1.675.281,3.1,3.1,0,0,1-3.417-3.262,3.326,3.326,0,0,1,3.562-3.466,3.848,3.848,0,0,1,1.608.291l-.3,1.171a3.187,3.187,0,0,0-1.239-.242,1.963,1.963,0,0,0-2.081,2.159A1.949,1.949,0,0,0,18.463,15.252Z"/>
        <path class="cls-1" d="M5.645,13.006a1.871,1.871,0,0,0-2.052-2.072,3.054,3.054,0,0,0-.668.058v4.269a2.708,2.708,0,0,0,.513.029A2.023,2.023,0,0,0,5.645,13.006Z"/>
        <path class="cls-1" d="M9.44,13.132c0,1.278.6,2.178,1.588,2.178s1.568-.949,1.568-2.217c0-1.172-.561-2.178-1.578-2.178C10.022,10.916,9.44,11.864,9.44,13.132Z"/>
      </g>
    </g>
  </g>
</svg>
