<svg xmlns="http://www.w3.org/2000/svg" width="14" height="14" viewBox="0 0 14 14">
  <defs>
    <style>
      .cls-1 {
        fill: #2a3138;
      }
    </style>
  </defs>
  <title>download</title>
  <g id="Layer_2" data-name="Layer 2">
    <g id="Layer_1-2" data-name="Layer 1">
      <g>
        <path class="cls-1" d="M12,11v1H2V11a1,1,0,0,0-1-1H1a1,1,0,0,0-1,1v2a1,1,0,0,0,1,1H13a1,1,0,0,0,1-1V11a1,1,0,0,0-1-1h0A1,1,0,0,0,12,11Z"/>
        <path class="cls-1" d="M7.356,10.644l2.79-2.79A.5.5,0,0,0,9.792,7H8V1A1,1,0,0,0,7,0H7A1,1,0,0,0,6,1V7H4.208a.5.5,0,0,0-.354.854l2.79,2.79A.5.5,0,0,0,7.356,10.644Z"/>
      </g>
    </g>
  </g>
</svg>
