<svg xmlns="http://www.w3.org/2000/svg" width="30" height="29.188" viewBox="0 0 30 29.188">
  <defs>
    <style>
      .cls-1 {
        fill: #f5c646;
      }
    </style>
  </defs>
  <title>fav</title>
  <g id="Layer_2" data-name="Layer 2">
    <g id="Layer_1-2" data-name="Layer 1">
      <path class="cls-1" d="M15,29.188l-.539-.345C13.889,28.476.448,19.754.011,9.512,0,9.351,0,9.181,0,9A9,9,0,0,1,15,2.292,9,9,0,0,1,30,9c0,.182,0,.353-.012.534-.436,10.221-13.876,18.942-14.449,19.309ZM9,2A7.008,7.008,0,0,0,2,9c0,.139,0,.27.008.409C2.356,17.555,12.522,25.078,15,26.794c2.477-1.717,12.645-9.247,12.991-17.367C28,9.268,28,9.138,28,9A7,7,0,0,0,15.751,4.37L15,5.224l-.751-.854A6.989,6.989,0,0,0,9,2Z"/>
    </g>
  </g>
</svg>
