<svg xmlns="http://www.w3.org/2000/svg" width="17" height="17" viewBox="0 0 17 17">
  <defs>
    <style>
      .cls-1 {
        fill: #10b6ff;
      }
    </style>
  </defs>
  <title>info</title>
  <g id="Layer_2" data-name="Layer 2">
    <g id="Layer_1-2" data-name="Layer 1">
      <g>
        <path class="cls-1" d="M8.5,1A7.5,7.5,0,1,1,1,8.5,7.508,7.508,0,0,1,8.5,1m0-1A8.5,8.5,0,1,0,17,8.5,8.5,8.5,0,0,0,8.5,0Z"/>
        <path class="cls-1" d="M7.108,10.228v-.6A1.792,1.792,0,0,1,7.3,8.806a2.044,2.044,0,0,1,.474-.624q.281-.245.558-.468A2.762,2.762,0,0,0,8.8,7.24a.859.859,0,0,0,.192-.528.625.625,0,0,0-.252-.5.923.923,0,0,0-.6-.2A1.759,1.759,0,0,0,7,6.52l-1.152-1.4a3.4,3.4,0,0,1,2.508-1,3.177,3.177,0,0,1,1.95.63,2.031,2.031,0,0,1,.846,1.722,2.37,2.37,0,0,1-.726,1.722q-.306.282-.606.528a3.277,3.277,0,0,0-.51.516A.9.9,0,0,0,9.1,9.8v.432Zm.048,2.652v-1.8h1.9v1.8Z"/>
      </g>
    </g>
  </g>
</svg>
