<svg xmlns="http://www.w3.org/2000/svg" width="20" height="20" viewBox="0 0 20 20">
  <defs>
    <style>
      .cls-1 {
        fill: #00a0ff;
      }
    </style>
  </defs>
  <title>kiyvstar</title>
  <g id="Layer_2" data-name="Layer 2">
    <g id="Layer_1-2" data-name="Layer 1">
      <g>
        <path class="cls-1" d="M10,7.672A1.336,1.336,0,0,1,8.694,6.308V1.364a1.307,1.307,0,1,1,2.612,0V6.308A1.336,1.336,0,0,1,10,7.672Z"/>
        <path class="cls-1" d="M14.191,10.853a1.313,1.313,0,0,1-1.242-.943,1.377,1.377,0,0,1,.838-1.719l4.5-1.528a1.3,1.3,0,0,1,1.645.876A1.377,1.377,0,0,1,19.1,9.258l-4.5,1.528A1.255,1.255,0,0,1,14.191,10.853Z"/>
        <path class="cls-1" d="M15.374,20a1.287,1.287,0,0,1-1.058-.562l-2.783-4a1.4,1.4,0,0,1,.289-1.905,1.27,1.27,0,0,1,1.824.3l2.783,4a1.4,1.4,0,0,1-.289,1.905A1.263,1.263,0,0,1,15.374,20Z"/>
        <path class="cls-1" d="M4.626,20a1.263,1.263,0,0,1-.766-.261,1.4,1.4,0,0,1-.289-1.905l2.783-4a1.27,1.27,0,0,1,1.824-.3,1.4,1.4,0,0,1,.289,1.905l-2.783,4A1.287,1.287,0,0,1,4.626,20Z"/>
        <path class="cls-1" d="M5.809,10.853a1.255,1.255,0,0,1-.4-.067L.9,9.258A1.377,1.377,0,0,1,.064,7.54,1.3,1.3,0,0,1,1.71,6.664l4.5,1.528A1.377,1.377,0,0,1,7.05,9.911,1.313,1.313,0,0,1,5.809,10.853Z"/>
      </g>
    </g>
  </g>
</svg>
