<svg xmlns="http://www.w3.org/2000/svg" width="21.255" height="24" viewBox="0 0 21.255 24">
  <defs>
    <style>
      .cls-1 {
        fill: #f25252;
      }
    </style>
  </defs>
  <title>pdf</title>
  <g id="Layer_2" data-name="Layer 2">
    <g id="Layer_1-2" data-name="Layer 1">
      <g>
        <path class="cls-1" d="M5.616,12.3c0-.646-.449-1.032-1.241-1.032a2.711,2.711,0,0,0-.657.062V13.4a2.462,2.462,0,0,0,.531.041C5.094,13.444,5.616,13.017,5.616,12.3Z"/>
        <path class="cls-1" d="M10.517,11.286a3.309,3.309,0,0,0-.72.063v4.6a2.885,2.885,0,0,0,.553.032,2.179,2.179,0,0,0,2.377-2.461A2.015,2.015,0,0,0,10.517,11.286Z"/>
        <path class="cls-1" d="M19.909,8.585h-.576V5.8a.406.406,0,0,0-.005-.052.462.462,0,0,0-.112-.3L14.589.161l0,0a.467.467,0,0,0-.094-.079L14.461.061a.485.485,0,0,0-.093-.039L14.343.013A.469.469,0,0,0,14.235,0H2.863a.942.942,0,0,0-.941.941V8.584H1.345A1.345,1.345,0,0,0,0,9.93v7A1.345,1.345,0,0,0,1.345,18.27h.576v4.789A.942.942,0,0,0,2.863,24H18.392a.942.942,0,0,0,.941-.941V18.27h.576a1.345,1.345,0,0,0,1.345-1.345v-7A1.345,1.345,0,0,0,19.909,8.585ZM2.863.941h10.9V5.757a.471.471,0,0,0,.471.471h4.157V8.585H2.863ZM14.416,13.465a3.562,3.562,0,0,1-1.169,2.847,5.042,5.042,0,0,1-3.242.907,13.814,13.814,0,0,1-1.8-.1v-6.9a14.219,14.219,0,0,1,2.148-.146,4.524,4.524,0,0,1,2.878.751A3.11,3.11,0,0,1,14.416,13.465ZM2.144,17.146V10.212a13.062,13.062,0,0,1,2.148-.146,3.369,3.369,0,0,1,2.148.563,2.053,2.053,0,0,1,.75,1.626,2.243,2.243,0,0,1-.646,1.668,3.258,3.258,0,0,1-2.284.741,3.979,3.979,0,0,1-.542-.032v2.513H2.144ZM18.392,22.8H2.863V18.27H18.392V22.8Zm1.364-11.382h-2.7v1.606h2.523V14.32H17.055v2.826H15.46V10.118h4.3Z"/>
      </g>
    </g>
  </g>
</svg>
