<svg xmlns="http://www.w3.org/2000/svg" width="12" height="14" viewBox="0 0 20 24">
  <defs>
    <style>
      .cls-1 {
        fill: #2a3138;
      }
    </style>
  </defs>
  <title>share</title>
  <g id="Layer_2" data-name="Layer 2">
    <g id="Layer_1-2" data-name="Layer 1">
      <path class="cls-1" d="M16,8a3.969,3.969,0,0,0-2.655,1.028L7.763,5.307A3.961,3.961,0,0,0,8,4,4.037,4.037,0,1,0,6.655,6.972l5.582,3.721a3.726,3.726,0,0,0,0,2.614L6.655,17.028A3.986,3.986,0,1,0,8,20a3.961,3.961,0,0,0-.237-1.307l5.582-3.721A3.994,3.994,0,1,0,16,8ZM4,6A2,2,0,1,1,6,4,2,2,0,0,1,4,6ZM4,22a2,2,0,1,1,2-2A2,2,0,0,1,4,22Zm12-8a2,2,0,1,1,2-2A2,2,0,0,1,16,14Z"/>
    </g>
  </g>
</svg>
