<svg xmlns="http://www.w3.org/2000/svg" width="20" height="20" viewBox="0 0 20 20">
  <defs>
    <style>
      .cls-1 {
        fill: #e8303f;
      }
    </style>
  </defs>
  <title>vodafone</title>
  <g id="Layer_2" data-name="Layer 2">
    <g id="Layer_1-2" data-name="Layer 1">
      <path class="cls-1" d="M8.193.164A9.5,9.5,0,0,1,13.477.65c-.378.035-.755.084-1.133.116A8.941,8.941,0,0,0,4.867,6.954,12.545,12.545,0,0,0,4.5,9.288a7.9,7.9,0,0,0,.628,2.757A5.578,5.578,0,0,0,8.137,14.9a4.85,4.85,0,0,0,3.737-.064,5.209,5.209,0,0,0,3.072-4.16,5.5,5.5,0,0,0-.823-3.687,5.5,5.5,0,0,0-3.3-2.119,3.916,3.916,0,0,1,.723-2.549A4.257,4.257,0,0,1,13.8.771,9.929,9.929,0,0,1,19.976,9.05a11.675,11.675,0,0,1-.138,2.893,9.981,9.981,0,0,1-8.6,8.026,25.336,25.336,0,0,1-2.565,0A10.352,10.352,0,0,1,3.7,17.791,10.194,10.194,0,0,1,0,9.658,10.265,10.265,0,0,1,1.964,4.08,10.117,10.117,0,0,1,8.193.164Z"/>
    </g>
  </g>
</svg>
