<svg xmlns="http://www.w3.org/2000/svg" width="21.255" height="24" viewBox="0 0 21.255 24">
  <defs>
    <style>
      .cls-1 {
        fill: #05a13c;
      }
    </style>
  </defs>
  <title>xls</title>
  <g id="Layer_2" data-name="Layer 2">
    <g id="Layer_1-2" data-name="Layer 1">
      <path class="cls-1" d="M19.91,8.585h-.576V5.8a.461.461,0,0,0,0-.053.462.462,0,0,0-.112-.3L14.589.161l0,0a.463.463,0,0,0-.094-.079L14.461.061a.494.494,0,0,0-.093-.039L14.343.013A.468.468,0,0,0,14.235,0H2.863a.942.942,0,0,0-.941.941V8.584H1.345A1.345,1.345,0,0,0,0,9.93v7A1.346,1.346,0,0,0,1.345,18.27h.576v4.789A.942.942,0,0,0,2.863,24H18.392a.942.942,0,0,0,.941-.941V18.27h.576a1.345,1.345,0,0,0,1.345-1.345v-7A1.345,1.345,0,0,0,19.91,8.585ZM2.863.941h10.9V5.756a.471.471,0,0,0,.471.471h4.157V8.585H2.863ZM12.4,13.773c-.925-.322-1.528-.834-1.528-1.643,0-.95.793-1.676,2.106-1.676a3.406,3.406,0,0,1,1.42.281l-.281,1.016a2.649,2.649,0,0,0-1.164-.264c-.545,0-.809.248-.809.537,0,.355.314.512,1.032.784.983.364,1.445.875,1.445,1.66,0,.933-.719,1.726-2.246,1.726a3.639,3.639,0,0,1-1.577-.339l.256-1.04a3.215,3.215,0,0,0,1.4.347c.579,0,.884-.239.884-.6C13.33,14.211,13.066,14.013,12.4,13.773Zm-2.13,1.28v1.057H6.79V10.544H8.054v4.509ZM2.752,16.111H1.315l1.61-2.817-1.553-2.75H2.818l.487,1.016c.165.339.289.611.421.925h.016c.132-.355.24-.6.38-.925l.471-1.016H6.03L4.461,13.261l1.652,2.85H4.66l-.5-1.008c-.206-.388-.338-.677-.5-1H3.644c-.116.322-.256.611-.429,1ZM18.392,22.8H2.863V18.27H18.392V22.8Zm.008-6.693L17.9,15.1c-.206-.388-.338-.677-.5-1h-.016c-.116.322-.256.611-.43,1l-.462,1.008H15.056l1.61-2.817-1.553-2.75h1.445l.488,1.016c.165.339.289.611.421.925h.017c.132-.355.239-.6.38-.925l.471-1.016h1.437L18.2,13.261l1.652,2.85H18.4Z"/>
    </g>
  </g>
</svg>
