<svg xmlns="http://www.w3.org/2000/svg" width="50" height="50" viewBox="0 0 50 50">
  <defs>
    <style>
      .cls-1 {
        fill: #4f4f4f;
      }
    </style>
  </defs>
  <title>youtube</title>
  <g id="Layer_2" data-name="Layer 2">
    <g id="Layer_1-2" data-name="Layer 1">
      <path class="cls-1" d="M22.58,21.49,28.76,25l-6.18,3.52ZM50,25A25,25,0,1,1,25,0,25,25,0,0,1,50,25ZM36.83,25a30.847,30.847,0,0,0-.5-5.73,2.975,2.975,0,0,0-2.09-2.1c-1.85-.5-9.24-.5-9.24-.5s-7.4,0-9.24.5a2.975,2.975,0,0,0-2.09,2.1,30.847,30.847,0,0,0-.5,5.73,30.788,30.788,0,0,0,.5,5.73,2.988,2.988,0,0,0,2.09,2.11c1.84.49,9.24.49,9.24.49s7.39,0,9.24-.49a2.988,2.988,0,0,0,2.09-2.11A30.788,30.788,0,0,0,36.83,25Z"/>
    </g>
  </g>
</svg>
